<?xml version="1.0" encoding="UTF-8" standalone="no"?>
<svg
   xmlns:dc="http://purl.org/dc/elements/1.1/"
   xmlns:cc="http://creativecommons.org/ns#"
   xmlns:rdf="http://www.w3.org/1999/02/22-rdf-syntax-ns#"
   xmlns:svg="http://www.w3.org/2000/svg"
   xmlns="http://www.w3.org/2000/svg"
   xmlns:sodipodi="http://sodipodi.sourceforge.net/DTD/sodipodi-0.dtd"
   xmlns:inkscape="http://www.inkscape.org/namespaces/inkscape"
   width="210mm"
   height="297mm"
   viewBox="0 0 210 297"
   version="1.1"
   id="svg8"
   inkscape:version="1.0.2 (e86c870879, 2021-01-15)"
   sodipodi:docname="udemy_game_backgrounds.svg">
  <defs
     id="defs2" />
  <sodipodi:namedview
     id="base"
     pagecolor="#ffffff"
     bordercolor="#666666"
     borderopacity="1.0"
     inkscape:pageopacity="0.0"
     inkscape:pageshadow="2"
     inkscape:zoom="0.12374369"
     inkscape:cx="2547.5175"
     inkscape:cy="1558.498"
     inkscape:document-units="mm"
     inkscape:current-layer="layer1"
     inkscape:document-rotation="0"
     showgrid="false"
     inkscape:window-width="1366"
     inkscape:window-height="710"
     inkscape:window-x="0"
     inkscape:window-y="27"
     inkscape:window-maximized="1"
     inkscape:snap-global="false"
     showborder="false" />
  <metadata
     id="metadata5">
    <rdf:RDF>
      <cc:Work
         rdf:about="">
        <dc:format>image/svg+xml</dc:format>
        <dc:type
           rdf:resource="http://purl.org/dc/dcmitype/StillImage" />
        <dc:title></dc:title>
      </cc:Work>
    </rdf:RDF>
  </metadata>
  <g
     inkscape:label="Layer 1"
     inkscape:groupmode="layer"
     id="layer1">
    <g
       id="g1403">
      <rect
         style="fill:#00ffff;fill-rule:evenodd;stroke-width:0.656051"
         id="rect1077"
         width="1531.0475"
         height="720"
         x="-166.1618"
         y="11.116916" />
      <path
         sodipodi:type="star"
         style="opacity:1;fill:#280b0b;fill-opacity:1;fill-rule:evenodd;stroke:none;stroke-width:0.264583;stroke-linejoin:round"
         id="path1095"
         sodipodi:sides="3"
         sodipodi:cx="-418.70749"
         sodipodi:cy="948.29889"
         sodipodi:r1="292.43564"
         sodipodi:r2="146.21782"
         sodipodi:arg1="0.55543063"
         sodipodi:arg2="1.6026282"
         inkscape:flatsided="false"
         inkscape:rounded="0"
         inkscape:randomized="0"
         d="m -170.23269,1102.5029 -253.1284,-8.0603 -253.12839,-8.0602 133.54459,-215.18552 133.5446,-215.18548 119.5838,223.24575 z"
         inkscape:transform-center-x="-0.51265163"
         inkscape:transform-center-y="-72.664494"
         transform="rotate(-2.0247132,-13026.123,-22177.753)" />
      <path
         id="path1087"
         style="opacity:1;fill:#25d225;fill-opacity:0.995321;fill-rule:evenodd;stroke:none;stroke-width:0.999999;stroke-linejoin:round"
         d="m 482.38867,1999.7441 a 647.21203,413.5815 0 0 0 -646.43555,413.5821 647.21203,413.5815 0 0 0 302.28126,349.9511 H 828.0918 a 647.21203,413.5815 0 0 0 302.2852,-349.9511 647.21203,413.5815 0 0 0 -647.21294,-413.5821 647.21203,413.5815 0 0 0 -0.77539,0 z"
         transform="scale(0.26458333)" />
      <path
         id="path1097"
         style="opacity:1;fill:#280b0b;fill-opacity:1;fill-rule:evenodd;stroke:none;stroke-width:0.999999;stroke-linejoin:round"
         inkscape:transform-center-x="-0.51265163"
         inkscape:transform-center-y="-72.664494"
         d="m 3566.9844,1195.7285 -475.6875,830.625 -422.0254,736.9238 h 1810.0781 l -430.8672,-740.2812 z"
         transform="scale(0.26458333)" />
      <ellipse
         style="opacity:1;fill:#25d225;fill-opacity:0.992645;fill-rule:evenodd;stroke:none;stroke-width:0.264583;stroke-linejoin:round"
         id="ellipse1089"
         cx="729.19873"
         cy="565.09692"
         rx="171.24152"
         ry="109.42677" />
      <path
         id="path1079"
         style="fill:#008000;fill-opacity:1;stroke:#000000;stroke-width:0.773858px;stroke-linecap:butt;stroke-linejoin:miter;stroke-opacity:1"
         d="m 4645.6562,1570.5176 c -203.6526,2.4427 -453.2211,396.777 -732.125,249.7636 -318.7478,-168.0153 -797.5559,372.1191 -1737.8945,-6.041 C 1235.298,1436.0799 1228.054,2418.954 294.89648,2174.7578 -163.6964,2054.7496 -452.66433,2152.127 -628.01367,2282.1973 v 481.08 H 5153.0762 v -646.9902 c -144.6191,-215.3192 -315.2117,-447.2382 -423,-520.1035 -27.1707,-18.3674 -55.3267,-26.015 -84.42,-25.666 z"
         transform="scale(0.26458333)" />
      <g
         id="g1138"
         style="fill:#808000"
         transform="matrix(0.36590171,0,0,0.36590171,416.42228,390.15375)">
        <ellipse
           style="opacity:1;fill:#808000;fill-opacity:0.992645;fill-rule:evenodd;stroke:none;stroke-width:0.264583;stroke-linejoin:round"
           id="ellipse1130"
           cx="-449.3461"
           cy="363.35349"
           rx="26.127129"
           ry="52.980701" />
        <ellipse
           style="opacity:1;fill:#808000;fill-opacity:0.992645;fill-rule:evenodd;stroke:none;stroke-width:0.264583;stroke-linejoin:round"
           id="ellipse1132"
           cx="-44.579868"
           cy="549.08124"
           rx="26.127129"
           ry="52.980701"
           transform="rotate(43.254827)" />
        <ellipse
           style="opacity:1;fill:#808000;fill-opacity:0.992645;fill-rule:evenodd;stroke:none;stroke-width:0.264583;stroke-linejoin:round"
           id="ellipse1134"
           cx="-603.90747"
           cy="-163.45786"
           rx="26.127129"
           ry="52.980701"
           transform="rotate(-52.172748)"
           inkscape:transform-center-x="15.172064"
           inkscape:transform-center-y="-9.4770243" />
        <ellipse
           style="opacity:1;fill:#808000;fill-opacity:0.992645;fill-rule:evenodd;stroke:none;stroke-width:0.327752;stroke-linejoin:round"
           id="ellipse1136"
           cx="-450.10934"
           cy="475.32166"
           rx="26.127129"
           ry="81.298714" />
      </g>
      <g
         id="g1168"
         style="fill:#808000"
         transform="matrix(0.36590171,0,0,0.36590171,899.55192,347.95772)">
        <ellipse
           style="opacity:1;fill:#808000;fill-opacity:0.992645;fill-rule:evenodd;stroke:none;stroke-width:0.264583;stroke-linejoin:round"
           id="ellipse1160"
           cx="-449.3461"
           cy="363.35349"
           rx="26.127129"
           ry="52.980701" />
        <ellipse
           style="opacity:1;fill:#808000;fill-opacity:0.992645;fill-rule:evenodd;stroke:none;stroke-width:0.264583;stroke-linejoin:round"
           id="ellipse1162"
           cx="-44.579868"
           cy="549.08124"
           rx="26.127129"
           ry="52.980701"
           transform="rotate(43.254827)" />
        <ellipse
           style="opacity:1;fill:#808000;fill-opacity:0.992645;fill-rule:evenodd;stroke:none;stroke-width:0.264583;stroke-linejoin:round"
           id="ellipse1164"
           cx="-603.90747"
           cy="-163.45786"
           rx="26.127129"
           ry="52.980701"
           transform="rotate(-52.172748)"
           inkscape:transform-center-x="15.172064"
           inkscape:transform-center-y="-9.4770243" />
        <ellipse
           style="opacity:1;fill:#808000;fill-opacity:0.992645;fill-rule:evenodd;stroke:none;stroke-width:0.327752;stroke-linejoin:round"
           id="ellipse1166"
           cx="-450.10934"
           cy="475.32166"
           rx="26.127129"
           ry="81.298714" />
      </g>
      <path
         id="path1101"
         style="fill:#008000;fill-opacity:1;stroke:#000000;stroke-width:0.773858px;stroke-linecap:butt;stroke-linejoin:miter;stroke-opacity:1"
         d="m 4645.6562,1570.5176 c -203.6526,2.4427 -453.2211,396.777 -732.125,249.7636 -318.7478,-168.0153 -797.5559,372.1191 -1737.8945,-6.041 C 1235.298,1436.0799 1228.054,2418.954 294.89648,2174.7578 -163.6964,2054.7496 -452.66433,2152.127 -628.01367,2282.1973 v 481.08 H 5153.0762 v -646.9902 c -144.6191,-215.3192 -315.2117,-447.2382 -423,-520.1035 -27.1707,-18.3674 -55.3267,-26.015 -84.42,-25.666 z"
         transform="scale(0.26458333)" />
      <path
         style="fill:#ffffff;stroke:none;stroke-width:0.264583px;stroke-linecap:butt;stroke-linejoin:miter;stroke-opacity:1"
         d="m 389.98164,196 -112.8956,191.03256 98.36133,-80.61437 14.22884,66.51898 44.65392,-24.01504 75.5011,51.27117 z"
         id="path1107"
         sodipodi:nodetypes="ccccccc" />
      <path
         id="path1111"
         style="fill:#ffffff;stroke:none;stroke-width:0.999999px;stroke-linecap:butt;stroke-linejoin:miter;stroke-opacity:1"
         d="m 3566.9844,1195.7285 -174.6016,304.8809 84.7695,145.875 69.7598,-170.1973 110.125,159.1016 58.1113,-185.0996 z"
         transform="scale(0.26458333)" />
      <g
         id="g1128"
         style="fill:#808000"
         transform="matrix(0.46400336,0,0,0.46400336,168.93574,371.42258)">
        <ellipse
           style="opacity:1;fill:#808000;fill-opacity:0.992645;fill-rule:evenodd;stroke:none;stroke-width:0.264583;stroke-linejoin:round"
           id="path1116"
           cx="-449.3461"
           cy="363.35349"
           rx="26.127129"
           ry="52.980701" />
        <ellipse
           style="opacity:1;fill:#808000;fill-opacity:0.992645;fill-rule:evenodd;stroke:none;stroke-width:0.264583;stroke-linejoin:round"
           id="ellipse1118"
           cx="-44.579868"
           cy="549.08124"
           rx="26.127129"
           ry="52.980701"
           transform="rotate(43.254827)" />
        <ellipse
           style="opacity:1;fill:#808000;fill-opacity:0.992645;fill-rule:evenodd;stroke:none;stroke-width:0.264583;stroke-linejoin:round"
           id="ellipse1120"
           cx="-603.90747"
           cy="-163.45786"
           rx="26.127129"
           ry="52.980701"
           transform="rotate(-52.172748)"
           inkscape:transform-center-x="15.172064"
           inkscape:transform-center-y="-9.4770243" />
        <ellipse
           style="opacity:1;fill:#808000;fill-opacity:0.992645;fill-rule:evenodd;stroke:none;stroke-width:0.327752;stroke-linejoin:round"
           id="ellipse1122"
           cx="-450.10934"
           cy="475.32166"
           rx="26.127129"
           ry="81.298714" />
      </g>
      <g
         id="g1148"
         style="fill:#808000"
         transform="matrix(0.36590171,0,0,0.36590171,1038.7705,410.37886)">
        <ellipse
           style="opacity:1;fill:#808000;fill-opacity:0.992645;fill-rule:evenodd;stroke:none;stroke-width:0.264583;stroke-linejoin:round"
           id="ellipse1140"
           cx="-449.3461"
           cy="363.35349"
           rx="26.127129"
           ry="52.980701" />
        <ellipse
           style="opacity:1;fill:#808000;fill-opacity:0.992645;fill-rule:evenodd;stroke:none;stroke-width:0.264583;stroke-linejoin:round"
           id="ellipse1142"
           cx="-44.579868"
           cy="549.08124"
           rx="26.127129"
           ry="52.980701"
           transform="rotate(43.254827)" />
        <ellipse
           style="opacity:1;fill:#808000;fill-opacity:0.992645;fill-rule:evenodd;stroke:none;stroke-width:0.264583;stroke-linejoin:round"
           id="ellipse1144"
           cx="-603.90747"
           cy="-163.45786"
           rx="26.127129"
           ry="52.980701"
           transform="rotate(-52.172748)"
           inkscape:transform-center-x="15.172064"
           inkscape:transform-center-y="-9.4770243" />
        <ellipse
           style="opacity:1;fill:#808000;fill-opacity:0.992645;fill-rule:evenodd;stroke:none;stroke-width:0.327752;stroke-linejoin:round"
           id="ellipse1146"
           cx="-450.10934"
           cy="475.32166"
           rx="26.127129"
           ry="81.298714" />
      </g>
      <g
         id="g1158"
         style="fill:#808000"
         transform="matrix(0.36590171,0,0,0.36590171,630.56119,422.37519)">
        <ellipse
           style="opacity:1;fill:#808000;fill-opacity:0.992645;fill-rule:evenodd;stroke:none;stroke-width:0.264583;stroke-linejoin:round"
           id="ellipse1150"
           cx="-449.3461"
           cy="363.35349"
           rx="26.127129"
           ry="52.980701" />
        <ellipse
           style="opacity:1;fill:#808000;fill-opacity:0.992645;fill-rule:evenodd;stroke:none;stroke-width:0.264583;stroke-linejoin:round"
           id="ellipse1152"
           cx="-44.579868"
           cy="549.08124"
           rx="26.127129"
           ry="52.980701"
           transform="rotate(43.254827)" />
        <ellipse
           style="opacity:1;fill:#808000;fill-opacity:0.992645;fill-rule:evenodd;stroke:none;stroke-width:0.264583;stroke-linejoin:round"
           id="ellipse1154"
           cx="-603.90747"
           cy="-163.45786"
           rx="26.127129"
           ry="52.980701"
           transform="rotate(-52.172748)"
           inkscape:transform-center-x="15.172064"
           inkscape:transform-center-y="-9.4770243" />
        <ellipse
           style="opacity:1;fill:#808000;fill-opacity:0.992645;fill-rule:evenodd;stroke:none;stroke-width:0.327752;stroke-linejoin:round"
           id="ellipse1156"
           cx="-450.10934"
           cy="475.32166"
           rx="26.127129"
           ry="81.298714" />
      </g>
      <g
         id="g1176"
         transform="matrix(0.21526225,0,0,0.21526225,212.9843,540.51524)">
        <path
           sodipodi:type="star"
           style="opacity:1;fill:#ffff00;fill-opacity:0.992645;fill-rule:evenodd;stroke:none;stroke-width:0.264583;stroke-linejoin:round"
           id="path1170"
           sodipodi:sides="6"
           sodipodi:cx="-532.78894"
           sodipodi:cy="291.83972"
           sodipodi:r1="93.586769"
           sodipodi:r2="40.223797"
           sodipodi:arg1="0.68469615"
           sodipodi:arg2="0.7375844"
           inkscape:flatsided="false"
           inkscape:rounded="0"
           inkscape:randomized="0"
           d="m -460.29558,351.02752 -42.72392,-32.13721 -44.7809,65.32441 6.46968,-53.06861 -78.96304,-6.11919 49.1936,-20.9314 -34.18214,-71.4436 42.72392,32.13721 44.78089,-65.3244 -6.46967,53.06861 78.96304,6.11919 -49.1936,20.93139 z"
           inkscape:transform-center-x="7.5057214"
           inkscape:transform-center-y="-16.593602" />
        <ellipse
           style="opacity:1;fill:#ffffff;fill-opacity:0.992645;fill-rule:evenodd;stroke:none;stroke-width:0.218523;stroke-linejoin:round"
           id="path1172"
           cx="-535.39374"
           cy="286.50543"
           rx="20.306803"
           ry="27.050587" />
      </g>
      <g
         id="g1182"
         transform="matrix(0.08454622,0,0,0.08454622,370.35353,598.41782)">
        <path
           sodipodi:type="star"
           style="opacity:1;fill:#ffff00;fill-opacity:0.992645;fill-rule:evenodd;stroke:none;stroke-width:0.264583;stroke-linejoin:round"
           id="path1178"
           sodipodi:sides="6"
           sodipodi:cx="-532.78894"
           sodipodi:cy="291.83972"
           sodipodi:r1="93.586769"
           sodipodi:r2="40.223797"
           sodipodi:arg1="0.68469615"
           sodipodi:arg2="0.7375844"
           inkscape:flatsided="false"
           inkscape:rounded="0"
           inkscape:randomized="0"
           d="m -460.29558,351.02752 -42.72392,-32.13721 -44.7809,65.32441 6.46968,-53.06861 -78.96304,-6.11919 49.1936,-20.9314 -34.18214,-71.4436 42.72392,32.13721 44.78089,-65.3244 -6.46967,53.06861 78.96304,6.11919 -49.1936,20.93139 z"
           inkscape:transform-center-x="7.5057214"
           inkscape:transform-center-y="-16.593602" />
        <ellipse
           style="opacity:1;fill:#ffffff;fill-opacity:0.992645;fill-rule:evenodd;stroke:none;stroke-width:0.218523;stroke-linejoin:round"
           id="ellipse1180"
           cx="-535.39374"
           cy="286.50543"
           rx="20.306803"
           ry="27.050587" />
      </g>
      <g
         id="g1188"
         transform="matrix(0.145619,0.02334706,-0.02334706,0.145619,638.65203,496.25975)">
        <path
           sodipodi:type="star"
           style="opacity:1;fill:#ffff00;fill-opacity:0.992645;fill-rule:evenodd;stroke:none;stroke-width:0.264583;stroke-linejoin:round"
           id="path1184"
           sodipodi:sides="6"
           sodipodi:cx="-532.78894"
           sodipodi:cy="291.83972"
           sodipodi:r1="93.586769"
           sodipodi:r2="40.223797"
           sodipodi:arg1="0.68469615"
           sodipodi:arg2="0.7375844"
           inkscape:flatsided="false"
           inkscape:rounded="0"
           inkscape:randomized="0"
           d="m -460.29558,351.02752 -42.72392,-32.13721 -44.7809,65.32441 6.46968,-53.06861 -78.96304,-6.11919 49.1936,-20.9314 -34.18214,-71.4436 42.72392,32.13721 44.78089,-65.3244 -6.46967,53.06861 78.96304,6.11919 -49.1936,20.93139 z"
           inkscape:transform-center-x="7.5057214"
           inkscape:transform-center-y="-16.593602" />
        <ellipse
           style="opacity:1;fill:#ffffff;fill-opacity:0.992645;fill-rule:evenodd;stroke:none;stroke-width:0.218523;stroke-linejoin:round"
           id="ellipse1186"
           cx="-535.39374"
           cy="286.50543"
           rx="20.306803"
           ry="27.050587" />
      </g>
      <g
         id="g1194"
         transform="matrix(0.16862388,0.02703543,-0.02703543,0.16862388,873.0085,546.9545)">
        <path
           sodipodi:type="star"
           style="opacity:1;fill:#ffff00;fill-opacity:0.992645;fill-rule:evenodd;stroke:none;stroke-width:0.264583;stroke-linejoin:round"
           id="path1190"
           sodipodi:sides="6"
           sodipodi:cx="-532.78894"
           sodipodi:cy="291.83972"
           sodipodi:r1="93.586769"
           sodipodi:r2="40.223797"
           sodipodi:arg1="0.68469615"
           sodipodi:arg2="0.7375844"
           inkscape:flatsided="false"
           inkscape:rounded="0"
           inkscape:randomized="0"
           d="m -460.29558,351.02752 -42.72392,-32.13721 -44.7809,65.32441 6.46968,-53.06861 -78.96304,-6.11919 49.1936,-20.9314 -34.18214,-71.4436 42.72392,32.13721 44.78089,-65.3244 -6.46967,53.06861 78.96304,6.11919 -49.1936,20.93139 z"
           inkscape:transform-center-x="7.5057214"
           inkscape:transform-center-y="-16.593602" />
        <ellipse
           style="opacity:1;fill:#ffffff;fill-opacity:0.992645;fill-rule:evenodd;stroke:none;stroke-width:0.218523;stroke-linejoin:round"
           id="ellipse1192"
           cx="-535.39374"
           cy="286.50543"
           rx="20.306803"
           ry="27.050587" />
      </g>
      <g
         id="g1200"
         transform="matrix(0.12797503,0.02051821,-0.02051821,0.12797503,1170.6033,560.4327)">
        <path
           sodipodi:type="star"
           style="opacity:1;fill:#ffff00;fill-opacity:0.992645;fill-rule:evenodd;stroke:none;stroke-width:0.264583;stroke-linejoin:round"
           id="path1196"
           sodipodi:sides="6"
           sodipodi:cx="-532.78894"
           sodipodi:cy="291.83972"
           sodipodi:r1="93.586769"
           sodipodi:r2="40.223797"
           sodipodi:arg1="0.68469615"
           sodipodi:arg2="0.7375844"
           inkscape:flatsided="false"
           inkscape:rounded="0"
           inkscape:randomized="0"
           d="m -460.29558,351.02752 -42.72392,-32.13721 -44.7809,65.32441 6.46968,-53.06861 -78.96304,-6.11919 49.1936,-20.9314 -34.18214,-71.4436 42.72392,32.13721 44.78089,-65.3244 -6.46967,53.06861 78.96304,6.11919 -49.1936,20.93139 z"
           inkscape:transform-center-x="7.5057214"
           inkscape:transform-center-y="-16.593602" />
        <ellipse
           style="opacity:1;fill:#ffffff;fill-opacity:0.992645;fill-rule:evenodd;stroke:none;stroke-width:0.218523;stroke-linejoin:round"
           id="ellipse1198"
           cx="-535.39374"
           cy="286.50543"
           rx="20.306803"
           ry="27.050587" />
      </g>
      <g
         id="g1206"
         transform="matrix(0.12797503,0.02051821,-0.02051821,0.12797503,1303.6814,593.81515)">
        <path
           sodipodi:type="star"
           style="opacity:1;fill:#ffff00;fill-opacity:0.992645;fill-rule:evenodd;stroke:none;stroke-width:0.264583;stroke-linejoin:round"
           id="path1202"
           sodipodi:sides="6"
           sodipodi:cx="-532.78894"
           sodipodi:cy="291.83972"
           sodipodi:r1="93.586769"
           sodipodi:r2="40.223797"
           sodipodi:arg1="0.68469615"
           sodipodi:arg2="0.7375844"
           inkscape:flatsided="false"
           inkscape:rounded="0"
           inkscape:randomized="0"
           d="m -460.29558,351.02752 -42.72392,-32.13721 -44.7809,65.32441 6.46968,-53.06861 -78.96304,-6.11919 49.1936,-20.9314 -34.18214,-71.4436 42.72392,32.13721 44.78089,-65.3244 -6.46967,53.06861 78.96304,6.11919 -49.1936,20.93139 z"
           inkscape:transform-center-x="7.5057214"
           inkscape:transform-center-y="-16.593602" />
        <ellipse
           style="opacity:1;fill:#ffffff;fill-opacity:0.992645;fill-rule:evenodd;stroke:none;stroke-width:0.218523;stroke-linejoin:round"
           id="ellipse1204"
           cx="-535.39374"
           cy="286.50543"
           rx="20.306803"
           ry="27.050587" />
      </g>
      <g
         id="g1310">
        <ellipse
           style="opacity:1;fill:#ffffff;fill-opacity:0.992645;fill-rule:evenodd;stroke:none;stroke-width:0.230221;stroke-linejoin:round"
           id="path1284"
           cx="39.69096"
           cy="214.55544"
           rx="85.231308"
           ry="65.84745" />
        <ellipse
           style="opacity:1;fill:#ffffff;fill-opacity:0.992645;fill-rule:evenodd;stroke:none;stroke-width:0.230221;stroke-linejoin:round"
           id="ellipse1286"
           cx="-52.617252"
           cy="167.26935"
           rx="85.231308"
           ry="65.84745" />
        <ellipse
           style="opacity:1;fill:#ffffff;fill-opacity:0.992645;fill-rule:evenodd;stroke:none;stroke-width:0.139623;stroke-linejoin:round"
           id="ellipse1288"
           cx="55.096348"
           cy="147.78627"
           rx="51.690491"
           ry="39.934704" />
      </g>
      <path
         id="ellipse1290"
         style="opacity:1;fill:#ffffff;fill-opacity:0.992645;fill-rule:evenodd;stroke:none;stroke-width:0.870127;stroke-linejoin:round"
         d="m 3496.6777,42.017578 a 322.13408,248.87225 0 0 0 -57.8183,142.261722 322.13408,248.87225 0 0 0 322.1347,248.87109 322.13408,248.87225 0 0 0 39.1192,-1.84375 322.13408,248.87225 0 0 0 309.7617,180.5625 322.13408,248.87225 0 0 0 322.1348,-248.87109 322.13408,248.87225 0 0 0 -95.0176,-176.49219 195.36563,150.93431 0 0 0 26.4726,-75.86524 195.36563,150.93431 0 0 0 -21.3613,-68.623042 z"
         transform="scale(0.26458333)" />
      <path
         id="ellipse1296"
         style="fill:#ffffff;fill-opacity:0.992645;fill-rule:evenodd;stroke:none;stroke-width:0.870127;stroke-linejoin:round"
         d="m 1525.5957,42.017578 a 322.13408,248.87225 0 0 0 -48,130.703122 322.13408,248.87225 0 0 0 322.1328,248.87305 322.13408,248.87225 0 0 0 39.1211,-1.84375 322.13408,248.87225 0 0 0 309.7598,180.5625 322.13408,248.87225 0 0 0 322.1347,-248.87305 322.13408,248.87225 0 0 0 -95.0175,-176.49023 195.36563,150.93431 0 0 0 26.4746,-75.865236 195.36563,150.93431 0 0 0 -14.502,-57.066406 z"
         transform="scale(0.26458333)" />
      <ellipse
         style="opacity:1;fill:#ffff00;fill-opacity:0.992645;fill-rule:evenodd;stroke:none;stroke-width:0.173442;stroke-linejoin:round"
         id="path1342"
         cx="1285.5554"
         cy="149.68784"
         rx="28.225973"
         ry="26.906086" />
    </g>
  </g>
</svg>
